<mxfile host="app.diagrams.net" agent="Mozilla/5.0 (Macintosh; Intel Mac OS X 10_15_7) AppleWebKit/537.36 (KHTML, like Gecko) Chrome/137.0.0.0 Safari/537.36" version="27.2.0">
  <diagram name="第 1 页" id="nY0KFAXpBQzxazCixmAz">
    <mxGraphModel dx="1426" dy="800" grid="1" gridSize="10" guides="1" tooltips="1" connect="1" arrows="1" fold="1" page="1" pageScale="1" pageWidth="827" pageHeight="1169" math="0" shadow="0">
      <root>
        <mxCell id="0" />
        <mxCell id="1" parent="0" />
        <mxCell id="MvnnGDplaimZQGmizqzH-1" value="" style="rounded=0;whiteSpace=wrap;html=1;fontFamily=Comic Sans MS;" vertex="1" parent="1">
          <mxGeometry x="376" y="265" width="120" height="60" as="geometry" />
        </mxCell>
        <mxCell id="MvnnGDplaimZQGmizqzH-2" value="" style="rounded=1;whiteSpace=wrap;html=1;fillColor=#ffcccc;strokeColor=#36393d;fontFamily=Comic Sans MS;" vertex="1" parent="1">
          <mxGeometry x="370" y="240" width="156" height="380" as="geometry" />
        </mxCell>
        <mxCell id="MvnnGDplaimZQGmizqzH-3" value="" style="rounded=1;whiteSpace=wrap;html=1;fillColor=#f9f7ed;strokeColor=#36393d;fontFamily=Comic Sans MS;" vertex="1" parent="1">
          <mxGeometry x="761" y="240" width="150" height="380" as="geometry" />
        </mxCell>
        <mxCell id="MvnnGDplaimZQGmizqzH-4" value="" style="ellipse;whiteSpace=wrap;html=1;aspect=fixed;labelBackgroundColor=none;rounded=1;fontFamily=Comic Sans MS;" vertex="1" parent="1">
          <mxGeometry x="428.5" y="372" width="30" height="30" as="geometry" />
        </mxCell>
        <mxCell id="MvnnGDplaimZQGmizqzH-5" value="" style="shape=cross;whiteSpace=wrap;html=1;size=0.049853515625;fontStyle=1;labelBackgroundColor=none;rounded=1;fontFamily=Comic Sans MS;" vertex="1" parent="1">
          <mxGeometry x="434.5" y="377" width="18" height="20" as="geometry" />
        </mxCell>
        <mxCell id="MvnnGDplaimZQGmizqzH-6" value="" style="endArrow=classic;html=1;rounded=1;strokeWidth=2;labelBackgroundColor=none;fontColor=default;fontFamily=Comic Sans MS;" edge="1" parent="1">
          <mxGeometry width="50" height="50" relative="1" as="geometry">
            <mxPoint x="443" y="372" as="sourcePoint" />
            <mxPoint x="443" y="322" as="targetPoint" />
          </mxGeometry>
        </mxCell>
        <mxCell id="MvnnGDplaimZQGmizqzH-7" value="" style="ellipse;whiteSpace=wrap;html=1;labelBackgroundColor=none;rounded=1;fontFamily=Comic Sans MS;" vertex="1" parent="1">
          <mxGeometry x="423" y="426.5" width="41" height="41" as="geometry" />
        </mxCell>
        <mxCell id="MvnnGDplaimZQGmizqzH-8" value="&lt;font style=&quot;font-size: 18px;&quot;&gt;Input Features x&lt;/font&gt;" style="rounded=1;whiteSpace=wrap;html=1;strokeWidth=1;labelBackgroundColor=none;fontFamily=Comic Sans MS;" vertex="1" parent="1">
          <mxGeometry x="538" y="859" width="200" height="60" as="geometry" />
        </mxCell>
        <mxCell id="MvnnGDplaimZQGmizqzH-9" value="&lt;font style=&quot;font-size: 18px;&quot;&gt;h&lt;/font&gt;" style="rounded=1;whiteSpace=wrap;html=1;labelBackgroundColor=none;fontFamily=Comic Sans MS;" vertex="1" parent="1">
          <mxGeometry x="390.75" y="527" width="105.5" height="53" as="geometry" />
        </mxCell>
        <mxCell id="MvnnGDplaimZQGmizqzH-10" value="" style="rounded=1;whiteSpace=wrap;html=1;strokeWidth=1;labelBackgroundColor=none;fontFamily=Comic Sans MS;" vertex="1" parent="1">
          <mxGeometry x="503.5" y="740" width="270" height="60" as="geometry" />
        </mxCell>
        <mxCell id="MvnnGDplaimZQGmizqzH-11" value="" style="endArrow=classic;html=1;rounded=1;strokeWidth=2;exitX=0.5;exitY=0;exitDx=0;exitDy=0;entryX=0.5;entryY=1;entryDx=0;entryDy=0;labelBackgroundColor=none;fontColor=default;fontFamily=Comic Sans MS;" edge="1" parent="1">
          <mxGeometry width="50" height="50" relative="1" as="geometry">
            <mxPoint x="444" y="528" as="sourcePoint" />
            <mxPoint x="444" y="469" as="targetPoint" />
          </mxGeometry>
        </mxCell>
        <mxCell id="MvnnGDplaimZQGmizqzH-12" value="" style="triangle;whiteSpace=wrap;html=1;direction=north;labelBackgroundColor=none;rounded=1;fontFamily=Comic Sans MS;" vertex="1" parent="1">
          <mxGeometry x="430.5" y="439.5" width="16" height="11.5" as="geometry" />
        </mxCell>
        <mxCell id="MvnnGDplaimZQGmizqzH-13" value="&lt;font style=&quot;font-size: 18px;&quot;&gt;y｜r=1,t&amp;gt;=0&lt;br&gt;&lt;/font&gt;" style="ellipse;whiteSpace=wrap;html=1;strokeWidth=2;labelBackgroundColor=none;rounded=1;fontFamily=Comic Sans MS;" vertex="1" parent="1">
          <mxGeometry x="795.5" y="269" width="86" height="51" as="geometry" />
        </mxCell>
        <mxCell id="MvnnGDplaimZQGmizqzH-14" value="" style="ellipse;whiteSpace=wrap;html=1;aspect=fixed;labelBackgroundColor=none;rounded=1;fontFamily=Comic Sans MS;" vertex="1" parent="1">
          <mxGeometry x="823" y="371" width="30" height="30" as="geometry" />
        </mxCell>
        <mxCell id="MvnnGDplaimZQGmizqzH-15" value="" style="shape=cross;whiteSpace=wrap;html=1;size=0.049853515625;fontStyle=1;labelBackgroundColor=none;rounded=1;fontFamily=Comic Sans MS;" vertex="1" parent="1">
          <mxGeometry x="829" y="376" width="18" height="20" as="geometry" />
        </mxCell>
        <mxCell id="MvnnGDplaimZQGmizqzH-16" value="" style="endArrow=classic;html=1;rounded=1;strokeWidth=2;labelBackgroundColor=none;fontColor=default;fontFamily=Comic Sans MS;" edge="1" parent="1">
          <mxGeometry width="50" height="50" relative="1" as="geometry">
            <mxPoint x="837.5" y="371" as="sourcePoint" />
            <mxPoint x="837.5" y="321" as="targetPoint" />
          </mxGeometry>
        </mxCell>
        <mxCell id="MvnnGDplaimZQGmizqzH-17" value="&lt;span style=&quot;font-size: 16px;&quot;&gt;&lt;b&gt;t&lt;/b&gt;&lt;/span&gt;" style="rounded=1;whiteSpace=wrap;html=1;labelBackgroundColor=none;fontFamily=Comic Sans MS;" vertex="1" parent="1">
          <mxGeometry x="387" y="859" width="80" height="41" as="geometry" />
        </mxCell>
        <mxCell id="MvnnGDplaimZQGmizqzH-18" value="" style="endArrow=classic;html=1;rounded=1;strokeWidth=2;exitX=0.5;exitY=0;exitDx=0;exitDy=0;entryX=0.5;entryY=1;entryDx=0;entryDy=0;labelBackgroundColor=none;fontColor=default;fontFamily=Comic Sans MS;" edge="1" parent="1">
          <mxGeometry width="50" height="50" relative="1" as="geometry">
            <mxPoint x="837.5" y="528" as="sourcePoint" />
            <mxPoint x="837.5" y="469" as="targetPoint" />
          </mxGeometry>
        </mxCell>
        <mxCell id="MvnnGDplaimZQGmizqzH-19" value="" style="endArrow=classic;html=1;rounded=1;strokeWidth=2;labelBackgroundColor=none;fontColor=default;fontFamily=Comic Sans MS;" edge="1" parent="1">
          <mxGeometry width="50" height="50" relative="1" as="geometry">
            <mxPoint x="836.5" y="428" as="sourcePoint" />
            <mxPoint x="837" y="402" as="targetPoint" />
          </mxGeometry>
        </mxCell>
        <mxCell id="MvnnGDplaimZQGmizqzH-20" value="" style="endArrow=classic;html=1;rounded=1;strokeWidth=2;exitX=0.5;exitY=0;exitDx=0;exitDy=0;labelBackgroundColor=none;fontColor=default;fontFamily=Comic Sans MS;" edge="1" parent="1" source="MvnnGDplaimZQGmizqzH-7">
          <mxGeometry width="50" height="50" relative="1" as="geometry">
            <mxPoint x="444" y="421" as="sourcePoint" />
            <mxPoint x="444" y="401" as="targetPoint" />
          </mxGeometry>
        </mxCell>
        <mxCell id="MvnnGDplaimZQGmizqzH-21" value="" style="endArrow=classic;html=1;rounded=1;strokeWidth=2;entryX=0.5;entryY=1;entryDx=0;entryDy=0;exitX=0.5;exitY=0;exitDx=0;exitDy=0;labelBackgroundColor=none;fontColor=default;fontFamily=Comic Sans MS;" edge="1" parent="1" source="MvnnGDplaimZQGmizqzH-31" target="MvnnGDplaimZQGmizqzH-40">
          <mxGeometry width="50" height="50" relative="1" as="geometry">
            <mxPoint x="637" y="690" as="sourcePoint" />
            <mxPoint x="824" y="587" as="targetPoint" />
          </mxGeometry>
        </mxCell>
        <mxCell id="MvnnGDplaimZQGmizqzH-22" value="&lt;font style=&quot;font-size: 14px;&quot;&gt;t&lt;/font&gt;" style="text;html=1;strokeColor=none;fillColor=none;align=center;verticalAlign=middle;whiteSpace=wrap;rounded=1;labelBackgroundColor=none;fontFamily=Comic Sans MS;" vertex="1" parent="1">
          <mxGeometry x="421" y="430" width="60" height="30" as="geometry" />
        </mxCell>
        <mxCell id="MvnnGDplaimZQGmizqzH-23" value="" style="ellipse;whiteSpace=wrap;html=1;labelBackgroundColor=none;rounded=1;fontFamily=Comic Sans MS;" vertex="1" parent="1">
          <mxGeometry x="816" y="428" width="41" height="41" as="geometry" />
        </mxCell>
        <mxCell id="MvnnGDplaimZQGmizqzH-24" value="" style="triangle;whiteSpace=wrap;html=1;direction=north;labelBackgroundColor=none;rounded=1;fontFamily=Comic Sans MS;" vertex="1" parent="1">
          <mxGeometry x="823.5" y="441" width="16" height="11.5" as="geometry" />
        </mxCell>
        <mxCell id="MvnnGDplaimZQGmizqzH-25" value="&lt;font style=&quot;font-size: 14px;&quot;&gt;t&lt;/font&gt;" style="text;html=1;strokeColor=none;fillColor=none;align=center;verticalAlign=middle;whiteSpace=wrap;rounded=1;labelBackgroundColor=none;fontFamily=Comic Sans MS;" vertex="1" parent="1">
          <mxGeometry x="814" y="431.5" width="60" height="30" as="geometry" />
        </mxCell>
        <mxCell id="MvnnGDplaimZQGmizqzH-26" value="&lt;font style=&quot;&quot;&gt;&lt;font style=&quot;font-size: 14px;&quot;&gt;IPM(t=0,t&amp;gt;0)&lt;/font&gt;&lt;br&gt;&lt;/font&gt;" style="ellipse;whiteSpace=wrap;html=1;strokeWidth=2;labelBackgroundColor=none;rounded=1;fontFamily=Comic Sans MS;" vertex="1" parent="1">
          <mxGeometry x="384" y="731" width="86" height="51" as="geometry" />
        </mxCell>
        <mxCell id="MvnnGDplaimZQGmizqzH-27" value="" style="endArrow=classic;html=1;rounded=1;strokeWidth=2;entryX=0.5;entryY=1;entryDx=0;entryDy=0;exitX=0.5;exitY=0;exitDx=0;exitDy=0;labelBackgroundColor=none;fontColor=default;fontFamily=Comic Sans MS;" edge="1" parent="1" source="MvnnGDplaimZQGmizqzH-17">
          <mxGeometry width="50" height="50" relative="1" as="geometry">
            <mxPoint x="424" y="920.5" as="sourcePoint" />
            <mxPoint x="426.5" y="782" as="targetPoint" />
          </mxGeometry>
        </mxCell>
        <mxCell id="MvnnGDplaimZQGmizqzH-28" value="&lt;span style=&quot;font-size: 16px;&quot;&gt;&lt;b&gt;r&lt;/b&gt;&lt;/span&gt;" style="rounded=1;whiteSpace=wrap;html=1;labelBackgroundColor=none;fontFamily=Comic Sans MS;" vertex="1" parent="1">
          <mxGeometry x="802" y="859" width="80" height="41" as="geometry" />
        </mxCell>
        <mxCell id="MvnnGDplaimZQGmizqzH-29" value="&lt;font style=&quot;&quot;&gt;&lt;font style=&quot;font-size: 14px;&quot;&gt;IPM(r=0,r=1)&lt;/font&gt;&lt;br&gt;&lt;/font&gt;" style="ellipse;whiteSpace=wrap;html=1;strokeWidth=2;labelBackgroundColor=none;rounded=1;fontFamily=Comic Sans MS;" vertex="1" parent="1">
          <mxGeometry x="800" y="730" width="86" height="51" as="geometry" />
        </mxCell>
        <mxCell id="MvnnGDplaimZQGmizqzH-30" value="" style="endArrow=classic;html=1;rounded=1;strokeWidth=2;entryX=0.5;entryY=1;entryDx=0;entryDy=0;exitX=0.5;exitY=0;exitDx=0;exitDy=0;labelBackgroundColor=none;fontColor=default;fontFamily=Comic Sans MS;" edge="1" parent="1" source="MvnnGDplaimZQGmizqzH-28">
          <mxGeometry width="50" height="50" relative="1" as="geometry">
            <mxPoint x="840" y="919.5" as="sourcePoint" />
            <mxPoint x="842.5" y="781" as="targetPoint" />
          </mxGeometry>
        </mxCell>
        <mxCell id="MvnnGDplaimZQGmizqzH-31" value="representation" style="rounded=1;whiteSpace=wrap;html=1;labelBackgroundColor=none;fontFamily=Comic Sans MS;" vertex="1" parent="1">
          <mxGeometry x="528" y="748" width="219" height="19.75" as="geometry" />
        </mxCell>
        <mxCell id="MvnnGDplaimZQGmizqzH-32" value="&lt;a href=&quot;https://baike.baidu.com/item/%E5%B8%8C%E8%85%8A%E5%AD%97%E6%AF%8D/4428067#3-22&quot; style=&quot;--un-rotate: 0; --un-rotate-x: 0; --un-rotate-y: 0; --un-rotate-z: 0; --un-scale-x: 1; --un-scale-y: 1; --un-scale-z: 1; --un-skew-x: 0; --un-skew-y: 0; --un-translate-x: 0; --un-translate-y: 0; --un-translate-z: 0; --un-pan-x: ; --un-pan-y: ; --un-pinch-zoom: ; --un-scroll-snap-strictness: proximity; --un-ordinal: ; --un-slashed-zero: ; --un-numeric-figure: ; --un-numeric-spacing: ; --un-numeric-fraction: ; --un-border-spacing-x: 0; --un-border-spacing-y: 0; --un-ring-offset-shadow: 0 0 rgb(0 0 0 / 0); --un-ring-shadow: 0 0 rgb(0 0 0 / 0); --un-shadow-inset: ; --un-shadow: 0 0 rgb(0 0 0 / 0); --un-ring-inset: ; --un-ring-offset-width: 0px; --un-ring-offset-color: #fff; --un-ring-width: 0px; --un-ring-color: rgb(147 197 253 / .5); --un-blur: ; --un-brightness: ; --un-contrast: ; --un-drop-shadow: ; --un-grayscale: ; --un-hue-rotate: ; --un-invert: ; --un-saturate: ; --un-sepia: ; --un-backdrop-blur: ; --un-backdrop-brightness: ; --un-backdrop-contrast: ; --un-backdrop-grayscale: ; --un-backdrop-hue-rotate: ; --un-backdrop-invert: ; --un-backdrop-opacity: ; --un-backdrop-saturate: ; --un-backdrop-sepia: ; box-sizing: content-box; margin: 0px; padding: 0px; color: rgb(51, 51, 51); text-decoration-skip-ink: auto; text-align: left; background-color: rgb(255, 255, 255);&quot;&gt;&lt;font style=&quot;font-size: 18px;&quot;&gt;Φ&lt;/font&gt;&lt;/a&gt;" style="text;html=1;strokeColor=none;fillColor=none;align=center;verticalAlign=middle;whiteSpace=wrap;rounded=1;labelBackgroundColor=none;fontFamily=Comic Sans MS;" vertex="1" parent="1">
          <mxGeometry x="608.5" y="767" width="60" height="30" as="geometry" />
        </mxCell>
        <mxCell id="MvnnGDplaimZQGmizqzH-33" value="" style="endArrow=classic;html=1;rounded=1;exitX=0;exitY=0.5;exitDx=0;exitDy=0;strokeWidth=2;labelBackgroundColor=none;fontColor=default;entryX=1;entryY=0.5;entryDx=0;entryDy=0;fontFamily=Comic Sans MS;" edge="1" parent="1" source="MvnnGDplaimZQGmizqzH-3" target="MvnnGDplaimZQGmizqzH-2">
          <mxGeometry width="50" height="50" relative="1" as="geometry">
            <mxPoint x="706" y="425.5" as="sourcePoint" />
            <mxPoint x="429.5" y="425.5" as="targetPoint" />
          </mxGeometry>
        </mxCell>
        <mxCell id="MvnnGDplaimZQGmizqzH-34" value="&lt;font style=&quot;font-size: 14px;&quot;&gt;distillation&lt;/font&gt;" style="text;html=1;strokeColor=none;fillColor=none;align=center;verticalAlign=middle;whiteSpace=wrap;rounded=1;labelBackgroundColor=none;fontColor=#000000;fontFamily=Comic Sans MS;" vertex="1" parent="1">
          <mxGeometry x="607.5" y="395.5" width="60" height="30" as="geometry" />
        </mxCell>
        <mxCell id="MvnnGDplaimZQGmizqzH-35" value="" style="endArrow=classic;html=1;rounded=1;exitX=0;exitY=0.5;exitDx=0;exitDy=0;strokeWidth=2;entryX=1;entryY=0.5;entryDx=0;entryDy=0;labelBackgroundColor=none;fontColor=default;fontFamily=Comic Sans MS;" edge="1" parent="1">
          <mxGeometry width="50" height="50" relative="1" as="geometry">
            <mxPoint x="528" y="757.38" as="sourcePoint" />
            <mxPoint x="473" y="757.38" as="targetPoint" />
          </mxGeometry>
        </mxCell>
        <mxCell id="MvnnGDplaimZQGmizqzH-36" value="" style="endArrow=classic;html=1;rounded=1;exitX=1;exitY=0.5;exitDx=0;exitDy=0;strokeWidth=2;entryX=0;entryY=0.5;entryDx=0;entryDy=0;labelBackgroundColor=none;fontColor=default;fontFamily=Comic Sans MS;" edge="1" parent="1">
          <mxGeometry width="50" height="50" relative="1" as="geometry">
            <mxPoint x="747" y="757.38" as="sourcePoint" />
            <mxPoint x="799" y="757.38" as="targetPoint" />
          </mxGeometry>
        </mxCell>
        <mxCell id="MvnnGDplaimZQGmizqzH-37" value="" style="endArrow=classic;html=1;rounded=1;strokeWidth=2;exitX=0.5;exitY=0;exitDx=0;exitDy=0;entryX=0.5;entryY=1;entryDx=0;entryDy=0;labelBackgroundColor=none;fontColor=default;fontFamily=Comic Sans MS;" edge="1" parent="1">
          <mxGeometry width="50" height="50" relative="1" as="geometry">
            <mxPoint x="638" y="859" as="sourcePoint" />
            <mxPoint x="638" y="800" as="targetPoint" />
          </mxGeometry>
        </mxCell>
        <mxCell id="MvnnGDplaimZQGmizqzH-38" value="" style="endArrow=classic;html=1;rounded=1;strokeWidth=2;entryX=0.5;entryY=1;entryDx=0;entryDy=0;exitX=0.5;exitY=0;exitDx=0;exitDy=0;labelBackgroundColor=none;fontColor=default;fontFamily=Comic Sans MS;" edge="1" parent="1" source="MvnnGDplaimZQGmizqzH-31" target="MvnnGDplaimZQGmizqzH-9">
          <mxGeometry width="50" height="50" relative="1" as="geometry">
            <mxPoint x="627" y="720" as="sourcePoint" />
            <mxPoint x="740" y="505" as="targetPoint" />
          </mxGeometry>
        </mxCell>
        <mxCell id="MvnnGDplaimZQGmizqzH-39" value="&lt;font style=&quot;font-size: 18px;&quot;&gt;y｜r=0,t&amp;gt;=0&lt;br&gt;&lt;/font&gt;" style="ellipse;whiteSpace=wrap;html=1;strokeWidth=2;labelBackgroundColor=none;rounded=1;fontFamily=Comic Sans MS;" vertex="1" parent="1">
          <mxGeometry x="400.5" y="270" width="86" height="51" as="geometry" />
        </mxCell>
        <mxCell id="MvnnGDplaimZQGmizqzH-40" value="&lt;font style=&quot;font-size: 18px;&quot;&gt;h&lt;/font&gt;" style="rounded=1;whiteSpace=wrap;html=1;labelBackgroundColor=none;fontFamily=Comic Sans MS;" vertex="1" parent="1">
          <mxGeometry x="783.75" y="527" width="105.5" height="53" as="geometry" />
        </mxCell>
        <mxCell id="MvnnGDplaimZQGmizqzH-41" value="RCT Domain" style="text;html=1;strokeColor=none;fillColor=none;align=center;verticalAlign=middle;whiteSpace=wrap;rounded=0;fontFamily=Comic Sans MS;" vertex="1" parent="1">
          <mxGeometry x="789" y="210" width="85" height="30" as="geometry" />
        </mxCell>
        <mxCell id="MvnnGDplaimZQGmizqzH-42" value="OBS Domain" style="text;html=1;strokeColor=none;fillColor=none;align=center;verticalAlign=middle;whiteSpace=wrap;rounded=0;fontFamily=Comic Sans MS;" vertex="1" parent="1">
          <mxGeometry x="402.75" y="210" width="85" height="30" as="geometry" />
        </mxCell>
        <mxCell id="MvnnGDplaimZQGmizqzH-43" value="r=0" style="text;html=1;strokeColor=none;fillColor=none;align=center;verticalAlign=middle;whiteSpace=wrap;rounded=0;fontFamily=Comic Sans MS;" vertex="1" parent="1">
          <mxGeometry x="467" y="680" width="85" height="30" as="geometry" />
        </mxCell>
        <mxCell id="MvnnGDplaimZQGmizqzH-44" value="r=1" style="text;html=1;strokeColor=none;fillColor=none;align=center;verticalAlign=middle;whiteSpace=wrap;rounded=0;fontFamily=Comic Sans MS;" vertex="1" parent="1">
          <mxGeometry x="707" y="680" width="85" height="30" as="geometry" />
        </mxCell>
        <mxCell id="MvnnGDplaimZQGmizqzH-45" value="main&lt;br&gt;logit" style="ellipse;whiteSpace=wrap;html=1;labelBackgroundColor=none;rounded=1;fontFamily=Comic Sans MS;" vertex="1" parent="1">
          <mxGeometry x="379" y="432" width="30" height="30" as="geometry" />
        </mxCell>
        <mxCell id="MvnnGDplaimZQGmizqzH-46" value="" style="endArrow=classic;html=1;rounded=1;strokeWidth=2;labelBackgroundColor=none;fontColor=default;fontFamily=Comic Sans MS;" edge="1" parent="1">
          <mxGeometry width="50" height="50" relative="1" as="geometry">
            <mxPoint x="409" y="447" as="sourcePoint" />
            <mxPoint x="425" y="447" as="targetPoint" />
          </mxGeometry>
        </mxCell>
        <mxCell id="MvnnGDplaimZQGmizqzH-47" value="main&lt;br style=&quot;--un-translate-z: 0; --un-pan-x: ; --un-pan-y: ; --un-pinch-zoom: ; --un-scroll-snap-strictness: proximity; --un-ordinal: ; --un-slashed-zero: ; --un-numeric-figure: ; --un-numeric-spacing: ; --un-numeric-fraction: ; --un-border-spacing-x: 0; --un-border-spacing-y: 0; --un-ring-offset-shadow: 0 0 rgb(0 0 0 / 0); --un-ring-shadow: 0 0 rgb(0 0 0 / 0); --un-shadow-inset: ; --un-shadow: 0 0 rgb(0 0 0 / 0); --un-ring-inset: ; --un-ring-offset-width: 0px; --un-ring-offset-color: #fff; --un-ring-width: 0px; --un-ring-color: rgb(147 197 253 / .5); --un-blur: ; --un-brightness: ; --un-contrast: ; --un-drop-shadow: ; --un-grayscale: ; --un-hue-rotate: ; --un-invert: ; --un-saturate: ; --un-sepia: ; --un-backdrop-blur: ; --un-backdrop-brightness: ; --un-backdrop-contrast: ; --un-backdrop-grayscale: ; --un-backdrop-hue-rotate: ; --un-backdrop-invert: ; --un-backdrop-opacity: ; --un-backdrop-saturate: ; --un-backdrop-sepia: ;&quot;&gt;logit" style="ellipse;whiteSpace=wrap;html=1;labelBackgroundColor=none;rounded=1;fontFamily=Comic Sans MS;" vertex="1" parent="1">
          <mxGeometry x="771.5" y="433.5" width="30" height="30" as="geometry" />
        </mxCell>
        <mxCell id="MvnnGDplaimZQGmizqzH-48" value="" style="endArrow=classic;html=1;rounded=1;strokeWidth=2;labelBackgroundColor=none;fontColor=default;fontFamily=Comic Sans MS;" edge="1" parent="1">
          <mxGeometry width="50" height="50" relative="1" as="geometry">
            <mxPoint x="801.5" y="448.5" as="sourcePoint" />
            <mxPoint x="817.5" y="448.5" as="targetPoint" />
          </mxGeometry>
        </mxCell>
      </root>
    </mxGraphModel>
  </diagram>
</mxfile>
